<svg xmlns="http://www.w3.org/2000/svg" width="410" height="404" viewBox="0 0 410 404" fill="none">
  <path d="M399.641 59.5243L224.172 387.854C216.182 402.813 194.818 402.813 186.828 387.854L10.3592 59.5243C1.57114 43.073 15.6978 24.1493 33.7899 27.4287L205 64.2667L376.21 27.4287C394.302 24.1493 408.429 43.073 399.641 59.5243Z" fill="url(#paint0_linear)"/>
  <path d="M292.965 16.0129L166.266 41.2148C164.237 41.6179 162.759 43.3779 162.702 45.4467L154.9 328.318C154.815 331.394 157.694 333.694 160.683 332.995L196.001 324.759C199.312 323.987 202.436 326.78 201.936 330.15L191.123 403.083C190.431 407.751 196.403 410.51 199.626 407.052L206.541 399.642C207.95 398.132 209.942 397.34 212.002 397.521L258.306 401.597C261.582 401.885 264.173 398.936 263.37 395.748L236.621 289.555C235.8 286.295 238.44 283.2 241.787 283.55L276.893 287.215C280.344 287.575 283.03 284.292 282.075 280.956L232.166 106.448C231.283 103.358 233.565 100.25 236.773 100.171L274.535 99.2373C277.978 99.1521 280.654 95.9814 279.982 92.6052L261.116 0.0402325C260.417 -3.39624 255.45 -4.31174 253.466 -1.33452L242.838 14.6146C241.713 16.3018 239.736 17.2211 237.711 17.0245L294.564 11.5079C298.113 11.1632 300.29 15.0674 297.752 17.5586L292.965 16.0129Z" fill="url(#paint1_linear)"/>
  <defs>
    <linearGradient id="paint0_linear" x1="6.00017" y1="32.9999" x2="235" y2="388" gradientUnits="userSpaceOnUse">
      <stop stop-color="#41D1FF"/>
      <stop offset="1" stop-color="#BD34FE"/>
    </linearGradient>
    <linearGradient id="paint1_linear" x1="194.651" y1="8.81818" x2="236.35" y2="403.011" gradientUnits="userSpaceOnUse">
      <stop stop-color="#FFEA83"/>
      <stop offset="0.0833333" stop-color="#FFDD35"/>
      <stop offset="1" stop-color="#FFA800"/>
    </linearGradient>
  </defs>
</svg>
